HIERARCHY
ROOT Hips
{
	OFFSET 0.000000 8.830580 0.000000
	CHANNELS 6 Xposition Yposition Zposition Zrotation Yrotation Xrotation 
	JOINT Spine
	{
		OFFSET 0.000000 0.010000 0.000000
		CHANNELS 3 Zrotation Yrotation Xrotation
		JOINT Spine1
		{
			OFFSET 0.000000 2.459130 0.000000
			CHANNELS 3 Zrotation Yrotation Xrotation
			JOINT Neck
			{
				OFFSET 0.000000 2.484630 0.000000
				CHANNELS 3 Zrotation Yrotation Xrotation
				JOINT Head_virtual
				{
					OFFSET 0.000000 0.000000 0.000000
					CHANNELS 3 Zrotation Yrotation Xrotation
					JOINT Head
					{
						OFFSET 0.000000 0.927525 0.000000
						CHANNELS 3 Zrotation Yrotation Xrotation
						End Site
						{
							OFFSET 0.000000 0.000000 0.000000
						}
					}
				}
				JOINT LeftUpArm_virtual
				{
					OFFSET 0.000000 0.000000 0.000000
					CHANNELS 3 Zrotation Yrotation Xrotation
					JOINT LeftUpArm
					{
						OFFSET 1.248820 0.000000 0.000000
						CHANNELS 3 Zrotation Yrotation Xrotation
						JOINT LeftForeArm
						{
							OFFSET 2.597580 0.000000 0.000000
							CHANNELS 3 Zrotation Yrotation Xrotation
							JOINT LeftHand
							{
								OFFSET 2.455420 0.000000 0.000000
								CHANNELS 3 Zrotation Yrotation Xrotation
								End Site
								{
									OFFSET 0.000000 0.000000 0.000000
								}
							}
						}
					}
				}
				JOINT RightUpArm_virtual
				{
					OFFSET -0.000000 -0.000000 -0.000000
					CHANNELS 3 Zrotation Yrotation Xrotation
					JOINT RightUpArm
					{
						OFFSET -1.248820 -0.000000 -0.000000
						CHANNELS 3 Zrotation Yrotation Xrotation
						JOINT RightForeArm
						{
							OFFSET -2.597580 -0.000000 -0.000000
							CHANNELS 3 Zrotation Yrotation Xrotation
							JOINT RightHand
							{
								OFFSET -2.455420 -0.000000 -0.000000
								CHANNELS 3 Zrotation Yrotation Xrotation
								End Site
								{
									OFFSET 0.000000 0.000000 0.000000
								}
							}
						}
					}
				}
			}
		}
	}
	JOINT LeftUpLeg
	{
		OFFSET 1.271939 0.000000 0.000000
		CHANNELS 3 Zrotation Yrotation Xrotation
		JOINT LeftLowLeg
		{
			OFFSET 0.000000 -4.342910 0.000000
			CHANNELS 3 Zrotation Yrotation Xrotation
			JOINT LeftFoot
			{
				OFFSET 0.000000 -4.487670 0.000000
				CHANNELS 3 Zrotation Yrotation Xrotation
				JOINT LeftToeBase
				{
					OFFSET 0.000000 0.000000 1.515070
					CHANNELS 3 Zrotation Yrotation Xrotation
					End Site
					{
						OFFSET 0.000000 0.000000 0.000000
					}
				}
			}
		}
	}
	JOINT RightUpLeg
	{
		OFFSET -1.271939 0.000000 0.000000
		CHANNELS 3 Zrotation Yrotation Xrotation
		JOINT RightLowLeg
		{
			OFFSET 0.000000 -4.342910 0.000000
			CHANNELS 3 Zrotation Yrotation Xrotation
			JOINT RightFoot
			{
				OFFSET 0.000000 -4.487670 0.000000
				CHANNELS 3 Zrotation Yrotation Xrotation
				JOINT RightToeBase
				{
					OFFSET 0.000000 0.000000 1.515070
					CHANNELS 3 Zrotation Yrotation Xrotation
					End Site
					{
						OFFSET 0.000000 0.000000 0.000000
					}
				}
			}
		}
	}
}
MOTION
Frames: 10
Frame Time: 0.041667
-18.938553 9.220409 45.734086 -175.678192 -0.403491 -173.140416 1.966994 -1.780686 -10.427792 1.376833 -2.089553 5.324451 0.000000 0.000000 0.000000 -2.416659 2.853121 -6.269246 5.560781 6.415928 -48.651235 -0.865984 16.814800 -4.555110 -3.707760 -8.878440 -30.994200 0.000000 -20.781799 0.000000 28.886101 10.376600 29.939899 8.393070 -12.391200 -0.760651 3.687300 6.712010 -36.202999 0.000000 20.179001 0.000000 -19.820299 -4.512710 29.164200 4.704568 1.553782 -5.802341 0.000000 0.000000 7.442630 8.686685 2.245675 6.811195 0.000000 0.000000 -34.415001 2.889453 0.638376 -3.591473 0.000000 0.000000 5.698420 7.182601 -9.085901 9.776784 0.000000 0.000000 -26.815200 
-18.938172 9.220380 45.734621 -175.680901 -0.390741 -173.126033 1.967625 -1.775457 -10.432265 1.364898 -2.085231 5.351074 0.000000 0.000000 0.000000 -2.396572 2.832090 -6.280364 5.548059 6.414895 -48.660642 -0.864387 16.826599 -4.553600 -3.766510 -8.916700 -31.058800 0.000000 -20.756800 0.000000 28.914801 10.354100 29.908600 8.334840 -12.321200 -0.896077 3.835540 6.588990 -36.134300 0.000000 20.237101 0.000000 -19.813000 -4.434980 29.200800 4.703638 1.549965 -5.819446 0.000000 0.000000 7.448820 8.670151 2.256104 6.810484 0.000000 0.000000 -34.399799 2.887602 0.645846 -3.615550 0.000000 0.000000 5.709920 7.172232 -9.081913 9.772520 0.000000 0.000000 -26.831700 
-18.937719 9.220338 45.734828 -175.681382 -0.377724 -173.126086 1.967006 -1.767873 -10.422116 1.361617 -2.077895 5.359214 0.000000 0.000000 0.000000 -2.396216 2.820241 -6.248278 5.556923 6.402084 -48.676453 -0.886643 16.818800 -4.550300 -3.809530 -8.940360 -31.134399 0.000000 -20.754801 0.000000 28.874701 10.309100 29.902800 8.395220 -12.394600 -0.749688 3.758250 6.714250 -36.300201 0.000000 20.189199 0.000000 -19.761499 -4.428720 29.239201 4.705124 1.551704 -5.812759 0.000000 0.000000 7.439340 8.669225 2.264112 6.813664 0.000000 0.000000 -34.406700 2.888588 0.622919 -3.630415 0.000000 0.000000 5.734170 7.173579 -9.045485 9.767974 0.000000 0.000000 -26.843800 
-18.937479 9.220296 45.734607 -175.680192 -0.374561 -173.135011 1.943169 -1.803641 -10.429425 1.419602 -2.105619 5.406591 0.000000 0.000000 0.000000 -2.483304 2.860886 -6.226070 5.576641 6.364210 -48.690495 -0.937746 16.828199 -4.536340 -3.863750 -8.907000 -31.193001 0.000000 -20.787001 0.000000 28.868200 10.291100 29.888100 8.381590 -12.321100 -0.778099 3.760130 6.704060 -36.262699 0.000000 20.175600 0.000000 -19.572399 -4.401200 28.823700 4.707567 1.555122 -5.796322 0.000000 0.000000 7.429170 8.660127 2.261494 6.810800 0.000000 0.000000 -34.394899 2.889907 0.623287 -3.626545 0.000000 0.000000 5.744980 7.172312 -9.039272 9.765393 0.000000 0.000000 -26.840500 
-18.937225 9.220313 45.734486 -175.676837 -0.377053 -173.123135 1.953980 -1.802534 -10.444026 1.396704 -2.108526 5.429557 0.000000 0.000000 0.000000 -2.462881 2.848792 -6.197067 5.563646 6.372014 -48.681752 -0.943602 16.811399 -4.492700 -3.898830 -8.911270 -31.208799 0.000000 -20.801001 0.000000 28.882099 10.281500 29.809401 8.400660 -12.313300 -0.765362 3.794470 6.703630 -36.221401 0.000000 20.201300 0.000000 -19.702801 -4.451190 29.107599 4.712803 1.546944 -5.803442 0.000000 0.000000 7.420600 8.664302 2.270572 6.814585 0.000000 0.000000 -34.402901 2.893821 0.637221 -3.634855 0.000000 0.000000 5.739970 7.177400 -9.049475 9.767425 0.000000 0.000000 -26.842200 
-18.937068 9.220333 45.734022 -175.674749 -0.383872 -173.096226 1.958590 -1.800765 -10.477733 1.389642 -2.108399 5.451482 0.000000 0.000000 0.000000 -2.465175 2.853474 -6.163634 5.555688 6.376808 -48.675463 -0.947155 16.813000 -4.473820 -3.948730 -8.957700 -31.125999 0.000000 -20.781799 0.000000 28.919600 10.257500 29.778299 8.422120 -12.294300 -0.778071 3.799410 6.675710 -36.158199 0.000000 20.184099 0.000000 -19.710300 -4.468760 29.054199 4.714473 1.566351 -5.826164 0.000000 0.000000 7.413660 8.657608 2.247790 6.811196 0.000000 0.000000 -34.392200 2.897392 0.651423 -3.643346 0.000000 0.000000 5.709900 7.182227 -9.069997 9.776285 0.000000 0.000000 -26.831700 
-18.937011 9.220388 45.733065 -175.676787 -0.396624 -173.063884 1.961327 -1.796889 -10.518531 1.384926 -2.105250 5.455173 0.000000 0.000000 0.000000 -2.486173 2.870499 -6.099166 5.568204 6.376350 -48.688996 -0.958055 16.777201 -4.449030 -3.981890 -8.971670 -31.037201 0.000000 -20.750200 0.000000 28.886200 10.227400 29.700300 8.434510 -12.292400 -0.743475 3.810490 6.668930 -36.203400 0.000000 20.150200 0.000000 -19.725800 -4.424160 28.990299 4.712403 1.566160 -5.844651 0.000000 0.000000 7.392100 8.664864 2.242086 6.820466 0.000000 0.000000 -34.401501 2.897898 0.644163 -3.650121 0.000000 0.000000 5.674810 7.166751 -9.080894 9.783261 0.000000 0.000000 -26.817700 
-18.937052 9.220304 45.731861 -175.678985 -0.401677 -173.019652 1.974282 -1.795020 -10.574448 1.362146 -2.107221 5.452528 0.000000 0.000000 0.000000 -2.511943 2.897128 -6.031513 5.583036 6.381012 -48.696081 -0.968634 16.742901 -4.405730 -4.003940 -8.972400 -31.025999 0.000000 -20.732201 0.000000 28.853600 10.181300 29.758900 8.422980 -12.276600 -0.746280 3.877120 6.662570 -36.234798 0.000000 20.143101 0.000000 -19.734600 -4.375330 29.059601 4.709402 1.576652 -5.870420 0.000000 0.000000 7.367360 8.662775 2.229224 6.823458 0.000000 0.000000 -34.396999 2.897959 0.605445 -3.666915 0.000000 0.000000 5.638420 7.159197 -9.055690 9.795321 0.000000 0.000000 -26.826300 
-18.937316 9.220420 45.730321 -175.681204 -0.401329 -172.990424 1.971419 -1.816617 -10.660621 1.378181 -2.127817 5.533397 0.000000 0.000000 0.000000 -2.569678 2.940263 -6.004556 5.563294 6.382854 -48.708790 -1.011830 16.757601 -4.417470 -4.034710 -8.981520 -31.076599 0.000000 -20.700100 0.000000 28.798201 10.160800 29.710100 8.392720 -12.212900 -0.784373 3.939780 6.645830 -36.257801 0.000000 20.162300 0.000000 -19.706499 -4.350560 29.083300 4.704189 1.605426 -5.879106 0.000000 0.000000 7.344540 8.654624 2.200452 6.824976 0.000000 0.000000 -34.396000 2.894796 0.586418 -3.673053 0.000000 0.000000 5.609300 7.149058 -9.042557 9.807723 0.000000 0.000000 -26.830400 
-18.937588 9.220334 45.728869 -175.680555 -0.383082 -172.964179 2.025001 -1.748878 -10.654821 1.268777 -2.077991 5.421566 0.000000 0.000000 0.000000 -2.470349 2.886670 -5.868126 5.544115 6.423883 -48.716266 -0.936105 16.658300 -4.346130 -4.111400 -8.994140 -31.127701 0.000000 -20.717899 0.000000 28.862900 10.173100 29.731899 8.455170 -12.270800 -0.703394 3.922980 6.622060 -36.224098 0.000000 20.188999 0.000000 -19.668100 -4.457120 29.061100 4.698663 1.666531 -5.889900 0.000000 0.000000 7.340110 8.672335 2.170106 6.818713 0.000000 0.000000 -34.425501 2.891417 0.598612 -3.686941 0.000000 0.000000 5.596800 7.151840 -9.034976 9.810949 0.000000 0.000000 -26.838500 
